+8_ID_stride4.mot
nRows=8
nColumns=38

name +8_ID_stride4.mot
datacolumns 38
datarows 8
range 2.1350000000 2.1700000000
endheader
time	pelvis_tilt_moment	pelvis_list_moment	pelvis_rotation_moment	pelvis_tx_force	pelvis_ty_force	pelvis_tz_force	hip_flexion_r_moment	hip_adduction_r_moment	hip_rotation_r_moment	knee_angle_r_moment	ankle_angle_r_moment	subtalar_angle_r_moment	mtp_angle_r_moment	hip_flexion_l_moment	hip_adduction_l_moment	hip_rotation_l_moment	knee_angle_l_moment	ankle_angle_l_moment	subtalar_angle_l_moment	mtp_angle_l_moment	lumbar_extension_moment	lumbar_bending_moment	lumbar_rotation_moment	arm_flex_r_moment	arm_add_r_moment	arm_rot_r_moment	elbow_flex_r_moment	pro_sup_r_moment	wrist_flex_r_moment	wrist_dev_r_moment	arm_flex_l_moment	arm_add_l_moment	arm_rot_l_moment	elbow_flex_l_moment	pro_sup_l_moment	wrist_flex_l_moment	wrist_dev_l_moment
        2.1350000000	      -26.4032973625	        4.0586270741	       -1.9953158977	        7.9396346728	       22.4198606576	      -96.0937870289	        0.4626448807	      -49.3691239317	       31.2008981668	       26.9414648807	     -211.8807649588	       53.2887033263	       -0.0109919410	       -5.2707347939	        3.7950571009	       -2.2696946557	       -3.7583540876	        2.2614926851	       -0.1680439561	        0.1397250539	       38.3409783506	       13.9709541252	      -41.4664864629	        0.6470916306	       -2.8812593452	       -4.0433912229	        6.1475005048	       -0.2514867951	       -0.3207208201	       -0.6198319450	        8.5927003329	        7.3788245771	        4.9642240755	        6.4004387189	        0.0193349911	        0.6420133959	       -0.4354396559	
        2.1400000000	      -25.5589171249	        3.0739707400	       -3.7710958652	       27.4804830115	       -3.0258210434	      -99.3172396560	        3.9378508595	      -47.1932286654	       28.8284342834	       21.0094562363	     -202.9096273476	       50.3108317564	       -0.0199813497	       -6.9095972767	        4.6931055898	       -2.5512790407	       -3.8078101867	        2.2688009969	       -0.1699135549	        0.1368217384	       30.7232046331	       15.0632613777	      -42.6619261842	        0.3813669199	       -3.3089721793	       -4.2865782676	        5.6252202530	       -0.2508264330	       -0.3558740845	       -0.5798588427	        8.6548939442	        7.4206537622	        5.0331916894	        5.9484857874	        0.0318937257	        0.6431504736	       -0.3921566806	
        2.1450000000	      -13.1843486659	       -6.1442667080	       -2.5199351054	       46.3928473818	      -22.9859138311	      -88.3499441983	        1.5960424245	      -49.8120593203	       29.0040993125	       11.3625325898	     -193.6542736211	       47.7272936275	       -0.0296852788	       -8.2317920030	        6.5558775874	       -3.0817829225	       -3.7355302420	        2.3066983884	       -0.1617967408	        0.1358584167	       24.3039421358	       14.6309170199	      -43.1749760567	        0.0911901313	       -3.4979123656	       -4.3789650277	        5.0890378486	       -0.2435328726	       -0.3760407642	       -0.5352736309	        8.5680778072	        7.1906829368	        4.9867364247	        5.4746227417	        0.0409970560	        0.6291609026	       -0.3498960525	
        2.1500000000	        1.2247568014	      -18.2440463428	       -1.3585610835	       59.6688748631	      -33.1239699208	      -67.3390730287	       -4.2162449811	      -54.1078506283	       29.2579849168	        0.6112155217	     -183.6248985667	       44.7133121059	       -0.0396253886	      -10.0888220909	        8.5232295906	       -3.4090620686	       -3.8389241892	        2.3601463890	       -0.1665069696	        0.1370364770	       19.0052479111	       12.9470877707	      -43.0096816186	       -0.2357890543	       -3.4375186819	       -4.2977077502	        4.5517023889	       -0.2322883144	       -0.3814378886	       -0.4872893695	        8.3263857307	        6.7061435651	        4.7821759890	        5.0081012497	        0.0465849937	        0.6029376442	       -0.3107084195	
        2.1550000000	       11.5016604371	      -24.1774692189	       -3.3605866084	       59.6505826343	      -30.0135911332	      -45.9993477939	       -2.9315178184	      -53.2273110346	       27.0187799092	       -6.4706140443	     -171.8173906377	       40.8690282653	       -0.0491309032	      -13.0975124231	       10.1499329246	       -3.2165261290	       -4.3080307514	        2.4236084240	       -0.1937859872	        0.1398140659	       14.5967442667	       11.6102497080	      -42.3324079052	       -0.6086730316	       -3.2011100593	       -4.0919230046	        4.0217602259	       -0.2181807418	       -0.3743970284	       -0.4374448595	        7.9832496324	        6.0438233456	        4.4752719063	        4.5757435373	        0.0488636974	        0.5680288179	       -0.2762106010	
        2.1600000000	       14.7524538297	      -25.1371929705	       -8.0847829218	       57.7496624666	      -21.3562153904	      -30.4648645814	        2.1441750265	      -49.7770159464	       22.1587244750	       -8.5742287895	     -158.1836604604	       36.5666310150	       -0.0574213203	      -17.1841977079	       11.4763557981	       -2.7021830794	       -5.2162020643	        2.4925387375	       -0.2437936029	        0.1440587624	       10.6159466913	       11.2327340940	      -41.1995906618	       -1.0157120223	       -2.8230444382	       -3.7898955628	        3.4973398029	       -0.2024890370	       -0.3592288144	       -0.3868442460	        7.5770314583	        5.2764472767	        4.1010759244	        4.1767557550	        0.0494587535	        0.5279336670	       -0.2454702739	
        2.1650000000	       12.9778763138	      -17.4964608183	      -15.2965111656	       46.4721309359	       -5.0677213827	      -23.0750216003	       17.4512357171	      -39.3806423156	       15.6869357766	       -6.7256846282	     -142.4050015429	       32.1479556777	       -0.0636646047	      -22.3844236481	       12.5463350272	       -1.7394912671	       -6.6330665531	        2.5632218562	       -0.3073137161	        0.1495282545	        6.8432739972	       12.2284275838	      -39.8106509605	       -1.4515121343	       -2.3924013336	       -3.4413429728	        2.9757648265	       -0.1861310522	       -0.3389066787	       -0.3360365970	        7.1407971759	        4.4655000622	        3.6928855027	        3.8108630569	        0.0493090464	        0.4854159390	       -0.2180424224	
        2.1700000000	        7.8258676941	       -8.7185351627	      -21.8069696396	       35.3868322470	       10.4692423980	      -22.5962449545	       33.4978410313	      -27.9715970241	       10.2406144423	       -3.4985837179	     -125.6430045937	       28.2512749235	       -0.0668351738	      -28.0395785277	       13.6633511614	       -0.7240953780	       -8.4096207834	        2.6298992640	       -0.3634528612	        0.1556441113	        2.9497750563	       14.3695305857	      -38.3363290872	       -1.8948442111	       -1.9702856831	       -3.0908061514	        2.4417892748	       -0.1697240964	       -0.3184306267	       -0.2846373908	        6.7053294333	        3.6714816631	        3.2864888258	        3.4496481768	        0.0494065449	        0.4430538536	       -0.1911491410	
